<svg width="126" height="126" viewBox="0 0 126 126" fill="none" xmlns="http://www.w3.org/2000/svg">
<g clip-path="url(#clip0_149_811)">
<path d="M15.75 15.75H31.5V31.5H15.75V15.75Z" fill="#383838"/>
<path d="M47.25 0V47.25H0V0H47.25ZM39.375 7.875H7.875V39.375H39.375V7.875ZM31.5 94.5H15.75V110.25H31.5V94.5Z" fill="#383838"/>
<path d="M47.25 78.75V126H0V78.75H47.25ZM7.875 86.625V118.125H39.375V86.625H7.875ZM94.5 15.75H110.25V31.5H94.5V15.75Z" fill="#383838"/>
<path d="M78.75 0V47.25H126V0H78.75ZM118.125 7.875V39.375H86.625V7.875H118.125ZM63 7.875V0H70.875V15.75H63V31.5H55.125V7.875H63ZM63 47.25V31.5H70.875V47.25H63ZM47.25 63V55.125H55.125V47.25H63V63H70.875V55.125H110.25V63H78.75V70.875H55.125V63H47.25ZM47.25 63V70.875H15.75V63H7.875V70.875H0V55.125H23.625V63H47.25ZM126 70.875H118.125V55.125H126V70.875ZM118.125 70.875H110.25V86.625H126V78.75H118.125V70.875ZM86.625 70.875H102.375V78.75H94.5V86.625H86.625V70.875ZM102.375 94.5V86.625H94.5V94.5H86.625V102.375H70.875V110.25H94.5V94.5H102.375ZM102.375 94.5H126V102.375H110.25V110.25H102.375V94.5ZM70.875 86.625V94.5H78.75V78.75H55.125V86.625H70.875Z" fill="#383838"/>
<path d="M55.125 94.5H63V118.125H94.5V126H55.125V94.5ZM126 110.25V126H102.375V118.125H118.125V110.25H126Z" fill="#383838"/>
</g>
<defs>
<clipPath id="clip0_149_811">
<rect width="126" height="126" fill="white"/>
</clipPath>
</defs>
</svg>
