<svg width="36" height="36" viewBox="0 0 36 36" fill="none" xmlns="http://www.w3.org/2000/svg">
<path fill-rule="evenodd" clip-rule="evenodd" d="M18 31.5C19.7728 31.5 21.5283 31.1508 23.1662 30.4724C24.8041 29.7939 26.2923 28.7995 27.5459 27.5459C28.7995 26.2923 29.7939 24.8041 30.4724 23.1662C31.1508 21.5283 31.5 19.7728 31.5 18C31.5 16.2272 31.1508 14.4717 30.4724 12.8338C29.7939 11.1959 28.7995 9.70765 27.5459 8.45406C26.2923 7.20047 24.8041 6.20606 23.1662 5.52763C21.5283 4.84919 19.7728 4.5 18 4.5C14.4196 4.5 10.9858 5.92232 8.45406 8.45406C5.92232 10.9858 4.5 14.4196 4.5 18C4.5 21.5804 5.92232 25.0142 8.45406 27.5459C10.9858 30.0777 14.4196 31.5 18 31.5ZM16.1745 11.985L24.6405 16.689C24.8742 16.8189 25.069 17.009 25.2045 17.2395C25.3401 17.47 25.4116 17.7326 25.4116 18C25.4116 18.2674 25.3401 18.53 25.2045 18.7605C25.069 18.991 24.8742 19.1811 24.6405 19.311L16.1745 24.015C15.9004 24.1674 15.5912 24.2455 15.2776 24.2416C14.964 24.2377 14.6568 24.1519 14.3866 23.9927C14.1164 23.8336 13.8924 23.6066 13.7369 23.3342C13.5814 23.0619 13.4997 22.7536 13.5 22.44V13.56C13.4997 13.2464 13.5814 12.9381 13.7369 12.6658C13.8924 12.3934 14.1164 12.1664 14.3866 12.0073C14.6568 11.8481 14.964 11.7623 15.2776 11.7584C15.5912 11.7545 15.9004 11.8326 16.1745 11.985Z" fill="white"/>
</svg>
