<svg width="64" height="65" viewBox="0 0 64 65" fill="none" xmlns="http://www.w3.org/2000/svg">
<g clip-path="url(#clip0_109_337)">
<path d="M1.36687 32.111C1.36537 37.5723 2.78137 42.9048 5.47388 47.605L1.10938 63.664L17.4174 59.3548C21.928 61.8293 26.9817 63.126 32.1174 63.1264H32.1309C49.0846 63.1264 62.8854 49.2237 62.8926 32.1355C62.8959 23.855 59.6989 16.0686 53.8904 10.2106C48.0829 4.353 40.3591 1.12542 32.1296 1.12164C15.1739 1.12164 1.37413 15.0236 1.36713 32.111" fill="url(#paint0_linear_109_337)"/>
<path d="M0.2675 32.1009C0.26575 37.7587 1.7325 43.2819 4.521 48.1504L0 64.7851L16.8927 60.3215C21.5472 62.8789 26.7878 64.2273 32.1203 64.2293H32.134C49.696 64.2293 63.9925 49.8265 64 32.1266C64.003 23.5486 60.691 15.4823 54.675 9.41442C48.6582 3.34725 40.6582 0.00352713 32.134 0C14.569 0 0.2745 14.4008 0.2675 32.1009ZM10.3278 47.3119L9.697 46.3029C7.0455 42.0542 5.646 37.1445 5.648 32.1029C5.6535 17.391 17.5345 5.42171 32.144 5.42171C39.219 5.42473 45.868 8.20411 50.869 13.2469C55.8698 18.2902 58.6215 24.9943 58.6198 32.1246C58.6133 46.8365 46.732 58.8074 32.134 58.8074H32.1235C27.3703 58.8048 22.7085 57.5184 18.643 55.0875L17.6755 54.5093L7.651 57.1579L10.3278 47.3119Z" fill="url(#paint1_linear_109_337)"/>
<path d="M24.1689 18.6807C23.5724 17.3447 22.9447 17.3177 22.3774 17.2943C21.9129 17.2741 21.3819 17.2757 20.8514 17.2757C20.3204 17.2757 19.4577 17.477 18.7284 18.2794C17.9984 19.0826 15.9414 21.0235 15.9414 24.9711C15.9414 28.9187 18.7947 32.7341 19.1924 33.2699C19.5907 33.8048 24.7007 42.1651 32.7937 45.3814C39.5197 48.0542 40.8884 47.5226 42.3482 47.3885C43.8082 47.255 47.0592 45.4481 47.7224 43.5745C48.3862 41.701 48.3862 40.0952 48.1872 39.7596C47.9882 39.4253 47.4572 39.2245 46.6609 38.8234C45.8647 38.4223 41.9499 36.4809 41.2202 36.2131C40.4902 35.9455 39.9594 35.812 39.4284 36.6154C38.8974 37.4176 37.3727 39.2245 36.9079 39.7596C36.4437 40.296 35.9789 40.3628 35.1829 39.9614C34.3862 39.5588 31.8219 38.7126 28.7797 35.9793C26.4127 33.8524 24.8147 31.226 24.3502 30.4225C23.8857 29.6204 24.3004 29.1855 24.6997 28.7857C25.0574 28.4262 25.4962 27.8487 25.8947 27.3804C26.2917 26.9118 26.4242 26.5775 26.6897 26.0423C26.9554 25.5067 26.8224 25.0381 26.6237 24.6368C26.4242 24.2354 24.8769 20.2672 24.1689 18.6807Z" fill="white"/>
</g>
<defs>
<linearGradient id="paint0_linear_109_337" x1="3090.27" y1="6255.36" x2="3090.27" y2="1.12164" gradientUnits="userSpaceOnUse">
<stop stop-color="#1FAF38"/>
<stop offset="1" stop-color="#60D669"/>
</linearGradient>
<linearGradient id="paint1_linear_109_337" x1="3200" y1="6478.51" x2="3200" y2="0" gradientUnits="userSpaceOnUse">
<stop stop-color="#F9F9F9"/>
<stop offset="1" stop-color="white"/>
</linearGradient>
<clipPath id="clip0_109_337">
<rect width="64" height="65" fill="white"/>
</clipPath>
</defs>
</svg>
